HIERARCHY
ROOT Hips
{
	OFFSET 52.691200 -6.051634 84.093399
	CHANNELS 6 Xposition Yposition Zposition Xrotation Yrotation Zrotation
	JOINT spine
	{
		OFFSET 0.000000 -0.342408 5.954376
		CHANNELS 3 Xrotation Yrotation Zrotation
		JOINT spine1
		{
			OFFSET 0.000000 -0.000001 8.856018
			CHANNELS 3 Xrotation Yrotation Zrotation
			JOINT spine2
			{
				OFFSET 0.000000 -0.000001 8.485672
				CHANNELS 3 Xrotation Yrotation Zrotation
				JOINT Neck
				{
					OFFSET 0.000000 -1.038703 21.786301
					CHANNELS 3 Xrotation Yrotation Zrotation
					JOINT Head
					{
						OFFSET 0.000000 -0.000001 6.582199
						CHANNELS 3 Xrotation Yrotation Zrotation
						End Site
						{
							OFFSET 0.000000 5.254357 15.932602
						}
					}
				}
				JOINT RightShoulder
				{
					OFFSET -3.573071 0.497524 9.163864
					CHANNELS 3 Xrotation Yrotation Zrotation
					JOINT RightArm
					{
						OFFSET 0.000000 -0.000002 12.019196
						CHANNELS 3 Xrotation Yrotation Zrotation
						JOINT RightArmRoll
						{
							OFFSET 0.000000 -0.000001 6.067551
							CHANNELS 3 Xrotation Yrotation Zrotation
							JOINT RightForeArm
							{
								OFFSET 0.000000 -0.000003 17.672607
								CHANNELS 3 Xrotation Yrotation Zrotation
								JOINT RightForeArmRoll
								{
									OFFSET 0.000000 -0.000001 6.808716
									CHANNELS 3 Xrotation Yrotation Zrotation
									JOINT RightHand
									{
										OFFSET 0.000000 -0.000002 13.663605
										CHANNELS 3 Xrotation Yrotation Zrotation
										End Site
										{
											OFFSET 0.000000 0.000000 0.100006
										}
									}
								}
							}
						}
					}
				}
				JOINT LeftShoulder
				{
					OFFSET 3.573071 0.497524 9.163864
					CHANNELS 3 Xrotation Yrotation Zrotation
					JOINT LeftArm
					{
						OFFSET 0.000000 -0.000002 12.019196
						CHANNELS 3 Xrotation Yrotation Zrotation
						JOINT LeftArmRoll
						{
							OFFSET 0.000000 -0.000001 6.067535
							CHANNELS 3 Xrotation Yrotation Zrotation
							JOINT LeftForeArm
							{
								OFFSET 0.000000 -0.000003 17.672592
								CHANNELS 3 Xrotation Yrotation Zrotation
								JOINT LeftForeArmRoll
								{
									OFFSET 0.000000 -0.000001 6.808716
									CHANNELS 3 Xrotation Yrotation Zrotation
									JOINT LeftHand
									{
										OFFSET 0.000000 -0.000002 13.663605
										CHANNELS 3 Xrotation Yrotation Zrotation
										End Site
										{
											OFFSET 0.000000 0.000000 0.100006
										}
									}
								}
							}
						}
					}
				}
			}
		}
	}
	JOINT RightUpLeg
	{
		OFFSET -5.277740 0.811859 -0.967796
		CHANNELS 3 Xrotation Yrotation Zrotation
		JOINT RightUpLegRoll
		{
			OFFSET 0.000000 -0.000003 16.021400
			CHANNELS 3 Xrotation Yrotation Zrotation
			JOINT RightLeg
			{
				OFFSET 0.000000 0.000003 -19.840103
				CHANNELS 3 Xrotation Yrotation Zrotation
				JOINT RightLegRoll
				{
					OFFSET 0.000000 -0.000003 19.904999
					CHANNELS 3 Xrotation Yrotation Zrotation
					JOINT RightFoot
					{
						OFFSET 0.000000 -0.000003 16.567497
						CHANNELS 3 Xrotation Yrotation Zrotation
						JOINT RightToeBase
						{
							OFFSET 0.000000 -0.000002 13.849602
							CHANNELS 3 Xrotation Yrotation Zrotation
							End Site
							{
								OFFSET 0.005871 0.773116 6.707275
							}
						}
					}
				}
			}
		}
	}
	JOINT LeftUpLeg
	{
		OFFSET 5.277740 0.811859 -0.967796
		CHANNELS 3 Xrotation Yrotation Zrotation
		JOINT LeftUpLegRoll
		{
			OFFSET 0.000000 -0.000003 16.021500
			CHANNELS 3 Xrotation Yrotation Zrotation
			JOINT LeftLeg
			{
				OFFSET 0.000000 -0.000003 19.840004
				CHANNELS 3 Xrotation Yrotation Zrotation
				JOINT LeftLegRoll
				{
					OFFSET 0.000000 -0.000003 20.089005
					CHANNELS 3 Xrotation Yrotation Zrotation
					JOINT LeftFoot
					{
						OFFSET 0.000000 -0.000002 16.383499
						CHANNELS 3 Xrotation Yrotation Zrotation
						JOINT LeftToeBase
						{
							OFFSET 0.000000 -0.000002 13.849594
							CHANNELS 3 Xrotation Yrotation Zrotation
							End Site
							{
								OFFSET -0.026310 0.773116 6.707275
							}
						}
					}
				}
			}
		}
	}
}
MOTION
Frames: 7
Frame Time: 0.041667
53.910202 -6.912348 83.593498 -0.707079 5.349744 97.320729 -3.405335 1.061473 -0.231955 -2.804637 2.134482 -0.415139 -1.159100 2.129355 -0.441964 -36.701284 14.633040 -6.082335 21.266586 -8.652502 -12.457754 -21.169731 -71.788027 -24.798158 54.969677 -25.725655 81.057803 0.000001 0.000002 -0.000001 111.999974 0.926517 -4.676102 0.000007 0.000004 -3.000001 -4.999737 -7.999871 0.000017 -21.385561 61.609761 25.207153 122.306203 59.356004 -116.257551 0.000016 -0.000003 0.000014 -0.035413 -3.638998 1.990743 -0.000011 0.000003 3.011609 -5.000170 7.999929 0.000023 -5.756128 -181.808858 -0.843175 -179.999991 0.000005 -1.049002 168.446358 1.410838 -0.392623 0.000002 -0.000000 0.328047 71.153407 6.857696 2.058974 25.456854 -7.355621 -0.000003 -20.528955 -179.284529 4.058483 -0.000004 -0.000005 -0.844188 -17.533094 -1.042043 0.491133 -0.000001 -0.000000 -0.213102 69.329173 -6.886668 -2.153683 25.456851 7.355612 0.000007 
53.913803 -6.929887 83.604492 -0.747275 5.426221 97.394673 -3.397869 1.068069 -0.231826 -2.789681 2.147544 -0.414226 -1.144150 2.142433 -0.441081 -37.129844 15.085245 -5.966551 21.573421 -9.112381 -12.526690 -20.386935 -71.411848 -23.940312 55.242662 -25.335970 81.105525 -0.000001 -0.000001 -0.000002 110.628915 0.980817 -4.689499 0.000007 0.000001 -3.000002 -4.999741 -7.999866 0.000020 -22.086889 61.853838 26.021595 121.319432 59.121551 -115.404188 0.000015 -0.000004 0.000013 -0.035412 -3.638420 1.990742 -0.000012 0.000003 3.011610 -5.000171 7.999929 0.000022 -5.822879 -181.875302 -0.891753 -179.999991 0.000005 -1.048005 168.461138 1.433438 -0.390383 -0.000000 -0.000000 0.330378 71.181971 6.857297 2.059050 25.456854 -7.355620 0.000007 -20.611206 -179.316727 4.055256 -0.000003 -0.000005 -0.842974 -17.515090 -1.042595 0.490525 -0.000001 -0.000000 -0.212024 69.311817 -6.886619 -2.153453 25.456851 7.355611 0.000007 
53.891605 -6.958027 83.597504 -0.784976 5.501836 97.465761 -3.390206 1.074946 -0.231607 -2.774355 2.161146 -0.413109 -1.128809 2.156052 -0.439990 -37.553005 15.535885 -5.846895 21.875090 -9.574575 -12.591519 -19.612425 -71.031925 -23.087901 55.503995 -24.939008 81.150406 -0.000001 0.000002 0.000001 109.224110 1.037114 -4.700646 0.000007 0.000004 -3.000003 -4.999740 -7.999871 0.000021 -22.804113 62.098407 26.853343 120.337633 58.878724 -114.557326 0.000016 -0.000003 0.000014 -0.035414 -3.637988 1.990743 -0.000015 0.000002 3.011609 -5.000174 7.999926 0.000023 -5.889591 -181.938741 -0.939276 -179.999991 0.000005 -1.045997 168.475222 1.456051 -0.389147 -0.000000 -0.000000 0.332811 71.211607 6.856897 2.059058 25.456851 -7.355620 0.000007 -20.691677 -179.347954 4.051516 -0.000004 -0.000005 -0.841762 -17.495987 -1.042304 0.489959 -0.000001 -0.000000 -0.210889 69.293744 -6.886596 -2.153372 25.456851 7.355611 0.000006 
53.870899 -6.982723 83.593887 -0.820760 5.576743 97.534063 -3.382535 1.082002 -0.231283 -2.758999 2.175118 -0.411771 -1.113449 2.170041 -0.438679 -37.967352 15.985312 -5.723538 22.168637 -10.039834 -12.652256 -18.846345 -70.650541 -22.240853 55.753325 -24.533671 81.192624 0.000000 -0.000001 -0.000002 107.785214 1.095102 -4.710346 0.000008 0.000003 -3.000006 -4.999736 -7.999874 0.000020 -23.532462 62.343993 27.696625 119.361927 58.629476 -113.719002 0.000015 -0.000003 0.000013 -0.035415 -3.637738 1.990742 -0.000012 0.000001 3.011611 -5.000171 7.999927 0.000023 -5.956398 -182.001168 -0.985602 -179.999991 0.000005 -1.045000 168.489115 1.477688 -0.387105 0.000001 -0.000000 0.335322 71.242083 6.856429 2.059106 25.456853 -7.355621 0.000007 -20.771454 -179.379168 4.047603 -0.000004 -0.000005 -0.840549 -17.476677 -1.041289 0.489452 -0.000000 -0.000000 -0.209728 69.275535 -6.886490 -2.153284 25.456853 7.355612 0.000007 
53.859600 -7.005271 83.596985 -0.855249 5.651083 97.599619 -3.375029 1.089168 -0.230835 -2.744004 2.189259 -0.410191 -1.098448 2.184199 -0.437129 -38.369841 16.433669 -5.596949 22.451361 -10.508989 -12.708539 -18.088014 -70.269594 -21.398300 55.989984 -24.118880 81.231856 -0.000001 0.000003 -0.000002 106.312195 1.154783 -4.718514 0.000008 0.000004 -3.000002 -4.999736 -7.999875 0.000020 -24.267476 62.591498 28.545965 118.393147 58.375776 -112.890924 0.000016 -0.000003 0.000014 -0.035417 -3.637718 1.990742 -0.000010 0.000002 3.011610 -5.000168 7.999927 0.000023 -6.023403 -182.061575 -1.030907 -179.999991 0.000005 -1.044003 168.503308 1.499315 -0.385083 0.000001 -0.000000 0.337883 71.272990 6.855958 2.059227 25.456853 -7.355620 0.000007 -20.851734 -179.409399 4.043111 -0.000004 -0.000004 -0.839335 -17.458366 -1.039677 0.489010 -0.000001 -0.000000 -0.208569 69.257346 -6.886443 -2.153107 25.456848 7.355610 0.000007 
53.856499 -7.041611 83.604095 -0.889098 5.725072 97.662396 -3.367886 1.096324 -0.230246 -2.729709 2.203399 -0.408352 -1.084148 2.198366 -0.435326 -38.757096 16.881535 -5.467202 22.720324 -10.982926 -12.760535 -17.336837 -69.891263 -20.559416 56.213809 -23.693522 81.268398 -0.000002 0.000001 0.000002 104.804929 1.216359 -4.724044 0.000008 0.000006 -3.000001 -4.999736 -7.999872 0.000020 -25.004267 62.842016 29.395389 117.434817 58.118783 -112.078077 0.000015 -0.000003 0.000013 -0.035415 -3.638002 1.990742 -0.000011 0.000002 3.011611 -5.000170 7.999927 0.000022 -6.090708 -182.120984 -1.075155 -179.999991 0.000005 -1.041994 168.518197 1.519971 -0.383303 -0.000000 -0.000000 0.340468 71.304204 6.855460 2.059223 25.456858 -7.355620 -0.000002 -20.933826 -179.439615 4.038379 -0.000004 -0.000004 -0.838123 -17.442147 -1.037565 0.488657 -0.000001 -0.000000 -0.207444 69.239588 -6.886410 -2.152904 25.456853 7.355610 0.000006 
53.842003 -7.064932 83.593002 -0.922984 5.798852 97.722460 -3.361286 1.103379 -0.229500 -2.716495 2.217358 -0.406232 -1.070928 2.212354 -0.433251 -39.125871 17.329170 -5.335047 22.972754 -11.462211 -12.808229 -16.591781 -69.517645 -19.722967 56.424172 -23.256564 81.302255 -0.000001 0.000000 -0.000000 103.263144 1.279395 -4.725755 0.000008 0.000001 -3.000005 -4.999739 -7.999872 0.000017 -25.738253 63.096891 30.239256 116.484314 57.861374 -111.278268 0.000016 -0.000004 0.000013 -0.035416 -3.638608 1.990742 -0.000012 0.000004 3.011610 -5.000173 7.999927 0.000022 -6.158450 -182.178385 -1.118509 -179.999991 0.000005 -1.040998 168.534207 1.539671 -0.381746 0.000002 -0.000000 0.343049 71.335329 6.854961 2.059126 25.456860 -7.355620 -0.000002 -21.018825 -179.469805 4.033388 -0.000006 -0.000004 -0.836908 -17.429130 -1.035082 0.488402 -0.000001 0.000000 -0.206382 69.222567 -6.886369 -2.152857 25.456849 7.355610 0.000007 
